<svg width="169" height="80" viewBox="0 0 169 80" fill="none" xmlns="http://www.w3.org/2000/svg">
<path d="M45.8376 0.0232124C41.888 0.457542 39.3066 0.877865 36.4799 1.56439C24.9539 4.35251 13.4536 10.7133 5.46413 18.7275C2.97305 21.2354 0.778842 24.2056 0.198022 25.8589C0.0689506 26.2512 -0.0213993 26.5594 0.00441498 26.5594C0.0431363 26.5594 1.7856 25.7328 3.88946 24.738C19.2489 17.4104 28.0645 14.3141 36.7381 13.1512C39.3324 12.815 44.5598 12.815 46.8056 13.1512C54.9113 14.3701 68.0895 18.5593 75.8466 22.3562C80.8546 24.8221 87.4372 28.8291 96.5626 35.0078C109.754 43.9326 117.679 47.8836 125.449 49.4248C127.695 49.8732 131.167 49.8732 133.283 49.4108C139.324 48.1218 146.01 44.0447 152.838 37.4877C158.284 32.2477 161.369 25.999 161.756 19.3579C161.834 18.0129 161.821 17.8308 161.653 17.9148C161.318 18.0409 158.362 20.0725 156.839 21.2073C156.064 21.7958 153.883 23.5051 151.999 25.0182C150.114 26.5454 147.765 28.3668 146.771 29.0813C141.505 32.8502 137.001 34.2653 130.199 34.2653C124.597 34.2653 120.002 33.3546 115.11 31.267C110.877 29.4596 108.76 28.1847 97.8533 20.8991C86.3789 13.2493 81.6161 10.279 76.208 7.44887C69.5867 3.96021 62.2813 1.49433 55.2211 0.331448C53.8271 0.107277 52.6913 0.0372238 49.9033 0.00920105C47.9544 -0.00481033 46.1215 -0.00481033 45.8376 0.0232124Z" fill="#0B4889"/>
<path d="M44.1526 19.6385C35.9179 20.269 27.2959 22.875 21.3974 26.5037C16.5443 29.502 12.2721 33.6632 8.72261 38.8331C7.58678 40.4724 6.08956 43.0363 5.13443 44.9418C4.30837 46.609 4.29547 46.595 5.92176 46.0346C7.45771 45.5162 9.54866 44.5495 14.1436 42.2517C23.3593 37.6562 27.4896 35.9889 32.9105 34.686C37.0279 33.7052 40.2934 33.3129 44.4108 33.2989C52.0776 33.2989 57.9116 34.798 67.5274 39.2394C74.8458 42.63 81.3251 46.7351 97.7172 58.364C104.416 63.1136 106.726 64.5987 110.818 66.7704C116.019 69.5165 120.085 71.0156 124.951 71.9403C130.204 72.9491 134.464 73.0752 139.084 72.3606C146.984 71.1417 153.734 67.6951 158.949 62.2169C163.918 57.005 166.654 51.1625 168.319 42.1817C168.668 40.3042 169.068 37.418 168.99 37.418C168.952 37.418 168.319 38.0625 167.558 38.8471C163.918 42.672 156.535 49.3411 153.347 51.6949C147.603 55.9401 136.374 58.42 129.146 57.047C124.474 56.1503 118.472 54.0767 114.884 52.1292C114.135 51.7229 108.998 48.4444 103.461 44.8437C94.8427 39.2394 87.314 34.4478 82.6804 31.7437C70.5864 24.6683 59.5896 20.3811 51.6388 19.6245C49.935 19.4704 46.321 19.4704 44.1526 19.6385Z" fill="#1564B9"/>
<path d="M47.2728 45.7105C41.826 46.369 37.2439 47.9102 29.9127 51.581C25.15 53.9628 22.2846 56.0084 19.2256 59.2168C16.5796 62.0049 14.4629 65.0172 12.4494 68.8982C11.2103 71.266 11.2103 71.294 12.0492 70.6355C15.3922 67.9875 20.9164 65.5917 29.2673 63.1678C37.786 60.7019 45.4916 59.6511 51.0804 60.2116C55.8044 60.6879 58.631 61.8929 67.3433 67.1469C72.532 70.2712 73.8614 71.0278 76.4428 72.3448C84.1355 76.2258 91.5442 78.4535 99.6757 79.3221C106.013 80.0086 110.531 79.9806 114.454 79.2661C116.726 78.8458 116.726 78.8318 115.358 78.1452C114.725 77.823 113.073 77.0664 111.679 76.4639C102.709 72.555 98.2042 69.8509 88.8337 62.7335C75.4232 52.5337 64.3489 46.7613 56.1787 45.6965C54.333 45.4583 49.2992 45.4724 47.2728 45.7105Z" fill="#247BD8"/>
</svg>
