<svg width="394" height="80" viewBox="0 0 394 80" fill="none" xmlns="http://www.w3.org/2000/svg">
<g clip-path="url(#clip0_0_1)">
<path d="M45.8376 0.0232136C41.888 0.457544 39.3066 0.877866 36.4799 1.56439C24.9539 4.35251 13.4536 10.7133 5.46413 18.7275C2.97305 21.2354 0.778842 24.2056 0.198022 25.8589C0.0689506 26.2512 -0.0213993 26.5594 0.004415 26.5594C0.0431363 26.5594 1.7856 25.7328 3.88946 24.738C19.2489 17.4104 28.0645 14.3141 36.7381 13.1512C39.3324 12.815 44.5598 12.815 46.8056 13.1512C54.9113 14.3701 68.0895 18.5593 75.8466 22.3562C80.8546 24.8221 87.4372 28.8291 96.5626 35.0078C109.754 43.9326 117.679 47.8836 125.449 49.4248C127.695 49.8732 131.167 49.8732 133.283 49.4108C139.324 48.1218 146.01 44.0447 152.838 37.4877C158.284 32.2477 161.369 25.999 161.756 19.3579C161.834 18.0129 161.821 17.8308 161.653 17.9148C161.318 18.0409 158.362 20.0725 156.839 21.2073C156.064 21.7958 153.883 23.5051 151.999 25.0182C150.114 26.5454 147.765 28.3668 146.771 29.0813C141.505 32.8502 137.001 34.2653 130.199 34.2653C124.597 34.2653 120.002 33.3546 115.11 31.267C110.877 29.4596 108.76 28.1847 97.8533 20.8991C86.3789 13.2493 81.6161 10.279 76.208 7.44887C69.5867 3.96021 62.2813 1.49433 55.2211 0.331447C53.8271 0.107276 52.6913 0.0372243 49.9033 0.00920299C47.9544 -0.00480768 46.1215 -0.00480773 45.8376 0.0232136Z" fill="#0B4889"/>
<path d="M44.1526 19.6385C35.9179 20.269 27.2959 22.875 21.3974 26.5037C16.5443 29.502 12.2721 33.6632 8.72261 38.8331C7.58678 40.4724 6.08956 43.0363 5.13443 44.9418C4.30837 46.609 4.29547 46.595 5.92176 46.0346C7.45771 45.5162 9.54866 44.5495 14.1436 42.2517C23.3593 37.6562 27.4896 35.9889 32.9105 34.686C37.0279 33.7052 40.2934 33.3129 44.4108 33.2989C52.0776 33.2989 57.9116 34.798 67.5274 39.2394C74.8458 42.63 81.3251 46.7351 97.7172 58.364C104.416 63.1136 106.726 64.5987 110.818 66.7704C116.019 69.5165 120.085 71.0156 124.951 71.9403C130.204 72.9491 134.464 73.0752 139.084 72.3606C146.984 71.1417 153.734 67.6951 158.949 62.2169C163.918 57.005 166.654 51.1625 168.319 42.1817C168.668 40.3042 169.068 37.418 168.99 37.418C168.952 37.418 168.319 38.0625 167.558 38.8471C163.918 42.672 156.535 49.3411 153.347 51.6949C147.603 55.9401 136.374 58.42 129.146 57.047C124.474 56.1503 118.472 54.0767 114.884 52.1292C114.135 51.7229 108.998 48.4444 103.461 44.8437C94.8427 39.2394 87.314 34.4478 82.6804 31.7437C70.5864 24.6683 59.5895 20.3811 51.6388 19.6245C49.935 19.4704 46.321 19.4704 44.1526 19.6385Z" fill="#1564B9"/>
<path d="M47.8931 46.1842C42.2815 46.837 37.5609 48.3649 30.0079 52.0041C25.1012 54.3654 22.1491 56.3934 18.9976 59.5742C16.2716 62.3383 14.0909 65.3247 12.0165 69.1723C10.7399 71.5197 10.7399 71.5474 11.6042 70.8946C15.0483 68.2694 20.7395 65.8942 29.343 63.4912C38.1194 61.0465 46.058 60.0048 51.8158 60.5604C56.6827 61.0326 59.5948 62.2273 68.5706 67.436C73.9162 70.5334 75.2858 71.2835 77.9453 72.5892C85.8707 76.4368 93.5034 78.6453 101.881 79.5064C108.41 80.187 113.064 80.1593 117.106 79.4509C119.447 79.0342 119.447 79.0204 118.037 78.3397C117.385 78.0202 115.683 77.2702 114.247 76.6728C105.006 72.7976 100.365 70.1168 90.711 63.0606C76.8949 52.9486 65.4856 47.2259 57.0683 46.1703C55.1668 45.9341 49.9808 45.9481 47.8931 46.1842Z" fill="#247BD8"/>
<path d="M201.716 54H198.023L208.705 24.9091H212.341L223.023 54H219.33L210.636 29.5114H210.409L201.716 54ZM203.08 42.6364H217.966V45.7614H203.08V42.6364ZM242.554 37.0682L239.543 37.9205C239.353 37.4186 239.074 36.9309 238.705 36.4574C238.345 35.9744 237.852 35.5767 237.227 35.2642C236.602 34.9517 235.802 34.7955 234.827 34.7955C233.491 34.7955 232.379 35.1032 231.489 35.7188C230.608 36.3248 230.168 37.0966 230.168 38.0341C230.168 38.8674 230.471 39.5256 231.077 40.0085C231.683 40.4915 232.63 40.8939 233.918 41.2159L237.156 42.0114C239.107 42.4848 240.561 43.2093 241.517 44.1847C242.473 45.1506 242.952 46.3958 242.952 47.9205C242.952 49.1705 242.592 50.2879 241.872 51.2727C241.162 52.2576 240.168 53.0341 238.889 53.6023C237.611 54.1705 236.124 54.4545 234.429 54.4545C232.204 54.4545 230.362 53.9716 228.903 53.0057C227.445 52.0398 226.522 50.6288 226.134 48.7727L229.315 47.9773C229.618 49.1515 230.191 50.0322 231.034 50.6193C231.886 51.2064 232.999 51.5 234.372 51.5C235.935 51.5 237.175 51.1686 238.094 50.5057C239.022 49.8333 239.486 49.0284 239.486 48.0909C239.486 47.3333 239.221 46.6989 238.69 46.1875C238.16 45.6667 237.346 45.2784 236.247 45.0227L232.611 44.1705C230.613 43.697 229.145 42.9631 228.207 41.9688C227.279 40.965 226.815 39.7102 226.815 38.2045C226.815 36.9735 227.161 35.8845 227.852 34.9375C228.553 33.9905 229.505 33.2472 230.707 32.7074C231.92 32.1676 233.293 31.8977 234.827 31.8977C236.986 31.8977 238.681 32.3712 239.912 33.3182C241.152 34.2652 242.033 35.5152 242.554 37.0682ZM261.748 45.0795V32.1818H265.1V54H261.748V50.3068H261.521C261.009 51.4148 260.214 52.357 259.134 53.1335C258.055 53.9006 256.691 54.2841 255.043 54.2841C253.68 54.2841 252.468 53.9858 251.407 53.3892C250.346 52.7831 249.513 51.8741 248.907 50.6619C248.301 49.4403 247.998 47.9015 247.998 46.0455V32.1818H251.35V45.8182C251.35 47.4091 251.795 48.678 252.685 49.625C253.585 50.572 254.731 51.0455 256.123 51.0455C256.956 51.0455 257.804 50.8324 258.665 50.4062C259.537 49.9801 260.266 49.3267 260.853 48.446C261.45 47.5653 261.748 46.4432 261.748 45.0795ZM271.24 54V32.1818H274.479V35.4773H274.706C275.104 34.3977 275.823 33.5218 276.865 32.8494C277.907 32.1771 279.081 31.8409 280.388 31.8409C280.634 31.8409 280.942 31.8456 281.311 31.8551C281.68 31.8646 281.96 31.8788 282.149 31.8977V35.3068C282.036 35.2784 281.775 35.2358 281.368 35.179C280.97 35.1127 280.549 35.0795 280.104 35.0795C279.043 35.0795 278.096 35.3021 277.263 35.7472C276.439 36.1828 275.786 36.7888 275.303 37.5653C274.829 38.3324 274.592 39.2083 274.592 40.1932V54H271.24ZM294.266 62.6364C292.646 62.6364 291.254 62.428 290.089 62.0114C288.925 61.6042 287.954 61.0644 287.178 60.392C286.411 59.7292 285.8 59.0189 285.345 58.2614L288.016 56.3864C288.319 56.7841 288.702 57.2386 289.166 57.75C289.63 58.2708 290.265 58.7206 291.07 59.0994C291.884 59.4877 292.949 59.6818 294.266 59.6818C296.027 59.6818 297.481 59.2557 298.626 58.4034C299.772 57.5511 300.345 56.2159 300.345 54.3977V49.9659H300.061C299.815 50.3636 299.464 50.8561 299.01 51.4432C298.565 52.0208 297.921 52.5369 297.078 52.9915C296.245 53.4366 295.118 53.6591 293.697 53.6591C291.936 53.6591 290.355 53.2424 288.953 52.4091C287.561 51.5758 286.458 50.3636 285.643 48.7727C284.839 47.1818 284.436 45.25 284.436 42.9773C284.436 40.7424 284.829 38.7964 285.615 37.1392C286.401 35.4725 287.495 34.1847 288.896 33.2756C290.298 32.357 291.917 31.8977 293.754 31.8977C295.175 31.8977 296.302 32.1345 297.135 32.608C297.978 33.072 298.622 33.6023 299.067 34.1989C299.521 34.786 299.872 35.2689 300.118 35.6477H300.459V32.1818H303.697V54.625C303.697 56.5 303.271 58.0246 302.419 59.1989C301.576 60.3826 300.44 61.2491 299.01 61.7983C297.589 62.357 296.008 62.6364 294.266 62.6364ZM294.152 50.6477C295.497 50.6477 296.633 50.34 297.561 49.7244C298.489 49.1089 299.195 48.2235 299.678 47.0682C300.161 45.9129 300.402 44.5303 300.402 42.9205C300.402 41.3485 300.165 39.9612 299.692 38.7585C299.218 37.5559 298.518 36.6136 297.589 35.9318C296.661 35.25 295.516 34.9091 294.152 34.9091C292.732 34.9091 291.548 35.2689 290.601 35.9886C289.663 36.7083 288.958 37.6742 288.484 38.8864C288.02 40.0985 287.788 41.4432 287.788 42.9205C287.788 44.4356 288.025 45.7756 288.499 46.9403C288.982 48.0956 289.692 49.0047 290.629 49.6676C291.576 50.321 292.75 50.6477 294.152 50.6477ZM318.982 54.4545C316.879 54.4545 315.066 53.9905 313.541 53.0625C312.026 52.125 310.857 50.8182 310.033 49.142C309.218 47.4564 308.811 45.4962 308.811 43.2614C308.811 41.0265 309.218 39.0568 310.033 37.3523C310.857 35.6383 312.002 34.303 313.47 33.3466C314.947 32.3807 316.671 31.8977 318.641 31.8977C319.777 31.8977 320.899 32.0871 322.007 32.4659C323.115 32.8447 324.124 33.4602 325.033 34.3125C325.942 35.1553 326.666 36.2727 327.206 37.6648C327.746 39.0568 328.016 40.7708 328.016 42.8068V44.2273H311.197V41.3295H324.607C324.607 40.0985 324.36 39 323.868 38.0341C323.385 37.0682 322.694 36.3059 321.794 35.7472C320.904 35.1884 319.853 34.9091 318.641 34.9091C317.305 34.9091 316.15 35.2405 315.175 35.9034C314.209 36.5568 313.465 37.4091 312.945 38.4602C312.424 39.5114 312.163 40.6383 312.163 41.8409V43.7727C312.163 45.4205 312.447 46.8172 313.016 47.9631C313.593 49.0994 314.393 49.9659 315.416 50.5625C316.439 51.1496 317.627 51.4432 318.982 51.4432C319.862 51.4432 320.658 51.3201 321.368 51.0739C322.088 50.8182 322.708 50.4394 323.229 49.9375C323.75 49.4261 324.152 48.7917 324.436 48.0341L327.675 48.9432C327.334 50.0417 326.761 51.0076 325.956 51.8409C325.151 52.6648 324.157 53.3087 322.973 53.7727C321.789 54.2273 320.459 54.4545 318.982 54.4545Z" fill="white"/>
</g>
<defs>
<clipPath id="clip0_0_1">
<rect width="394" height="80" fill="white"/>
</clipPath>
</defs>
</svg>
