<svg width="312" height="77" viewBox="0 0 312 77" fill="none" xmlns="http://www.w3.org/2000/svg">
<path d="M34.1568 23.1046C28.2969 23.6126 22.1614 25.7123 17.9639 28.636C14.5103 31.0517 11.4701 34.4043 8.9443 38.5697C8.13603 39.8905 7.07058 41.9563 6.3909 43.4915C5.80307 44.8348 5.79388 44.8235 6.95118 44.372C8.04418 43.9543 9.53213 43.1754 12.802 41.3241C19.36 37.6215 22.2991 36.2782 26.1568 35.2284C29.0868 34.4382 31.4105 34.1221 34.3405 34.1108C39.7963 34.1108 43.9479 35.3187 50.7907 38.8971C55.9985 41.6289 60.6093 44.9364 72.2741 54.3058C77.0411 58.1325 78.6852 59.3291 81.5968 61.0788C85.2983 63.2913 88.1915 64.4992 91.6542 65.2442C95.3925 66.057 98.4235 66.1586 101.712 65.5829C107.333 64.6008 112.137 61.8238 115.847 57.4101C119.383 53.2108 121.331 48.5035 122.515 41.2677C122.763 39.755 123.048 37.4296 122.993 37.4296C122.966 37.4296 122.515 37.9489 121.974 38.581C119.383 41.6628 114.13 47.036 111.861 48.9325C107.774 52.3529 99.7829 54.3509 94.6393 53.2447C91.3144 52.5222 87.0434 50.8515 84.49 49.2824C83.9573 48.9551 80.3017 46.3136 76.3614 43.4125C68.7747 37.8247 64.8711 35.0365 61.5737 32.8578C52.9675 27.1572 45.142 23.7029 39.4841 23.0934C38.2717 22.9692 35.6999 22.9692 34.1568 23.1046Z" fill="#1564B9"/>
<path d="M32.4117 39.518C28.5357 40.0486 25.275 41.2903 20.058 44.2479C16.6688 46.1669 14.6297 47.815 12.4529 50.4C10.57 52.6464 9.0637 55.0734 7.63085 58.2003C6.74911 60.1081 6.74911 60.1306 7.34612 59.6001C9.72501 57.4666 13.6561 55.5363 19.5988 53.5834C25.6608 51.5966 31.1442 50.75 35.1212 51.2015C38.4829 51.5853 40.4944 52.5561 46.6942 56.7893C50.3865 59.3066 51.3326 59.9162 53.1695 60.9773C58.6437 64.1041 63.9159 65.899 69.7023 66.5989C74.2121 67.152 77.4268 67.1294 80.219 66.5537C81.8356 66.2151 81.8356 66.2038 80.862 65.6507C80.4119 65.391 79.2362 64.7815 78.2443 64.296C71.8608 61.1466 68.6553 58.9679 61.987 53.2334C52.4439 45.0155 44.5633 40.3647 38.7493 39.5067C37.4358 39.3148 33.8537 39.3261 32.4117 39.518Z" fill="#247BD8"/>
<path d="M39.2544 7.01871C36.4439 7.36865 34.6069 7.7073 32.5954 8.26043C24.3933 10.5068 16.2095 15.6318 10.5241 22.0887C8.75142 24.1093 7.18998 26.5025 6.77666 27.8345C6.68482 28.1506 6.62052 28.3989 6.63889 28.3989C6.66645 28.3989 7.90641 27.7329 9.40354 26.9314C20.3336 21.0276 26.6068 18.5329 32.7791 17.5959C34.6253 17.325 38.3451 17.325 39.9433 17.5959C45.7114 18.578 55.0892 21.9533 60.6093 25.0124C64.173 26.9992 68.8573 30.2276 75.3511 35.2058C84.738 42.3965 90.3775 45.5799 95.9068 46.8216C97.505 47.1828 99.9757 47.1828 101.482 46.8103C105.781 45.7718 110.538 42.4868 115.397 37.2039C119.273 32.982 121.468 27.9474 121.744 22.5967C121.799 21.513 121.79 21.3663 121.67 21.434C121.432 21.5356 119.328 23.1724 118.244 24.0868C117.693 24.5609 116.141 25.9381 114.8 27.1572C113.459 28.3876 111.788 29.8551 111.08 30.4308C107.333 33.4674 104.127 34.6075 99.2869 34.6075C95.3006 34.6075 92.0308 33.8738 88.5497 32.1918C85.5371 30.7356 84.0308 29.7084 76.2695 23.8384C68.1042 17.675 64.7149 15.2818 60.8665 13.0016C56.1546 10.1908 50.956 8.20399 45.9319 7.26706C44.9399 7.08644 44.1316 7.03 42.1477 7.00742C40.7608 6.99613 39.4565 6.99613 39.2544 7.01871Z" fill="#0B4889"/>
<path d="M152.523 55H148.795L157.17 31.7273H161.227L169.602 55H165.875L159.295 35.9545H159.114L152.523 55ZM153.148 45.8864H165.239V48.8409H153.148V45.8864ZM176.088 31.7273V55H172.69V31.7273H176.088ZM184.057 31.7273V55H180.659V31.7273H184.057ZM201.594 37.8409C201.473 36.7652 200.973 35.9318 200.094 35.3409C199.215 34.7424 198.109 34.4432 196.776 34.4432C195.821 34.4432 194.995 34.5947 194.298 34.8977C193.601 35.1932 193.06 35.6023 192.673 36.125C192.295 36.6402 192.105 37.2273 192.105 37.8864C192.105 38.4394 192.234 38.9167 192.491 39.3182C192.757 39.7197 193.101 40.0568 193.526 40.3295C193.957 40.5947 194.42 40.8182 194.912 41C195.404 41.1742 195.878 41.3182 196.332 41.4318L198.605 42.0227C199.348 42.2045 200.109 42.4508 200.889 42.7614C201.67 43.072 202.393 43.4811 203.06 43.9886C203.726 44.4962 204.264 45.125 204.673 45.875C205.09 46.625 205.298 47.5227 205.298 48.5682C205.298 49.8864 204.957 51.0568 204.276 52.0795C203.601 53.1023 202.62 53.9091 201.332 54.5C200.052 55.0909 198.503 55.3864 196.685 55.3864C194.942 55.3864 193.435 55.1098 192.162 54.5568C190.889 54.0038 189.893 53.2197 189.173 52.2045C188.454 51.1818 188.056 49.9697 187.98 48.5682H191.503C191.571 49.4091 191.844 50.1098 192.321 50.6705C192.806 51.2235 193.423 51.6364 194.173 51.9091C194.931 52.1742 195.76 52.3068 196.662 52.3068C197.654 52.3068 198.537 52.1515 199.31 51.8409C200.09 51.5227 200.704 51.0833 201.151 50.5227C201.598 49.9545 201.821 49.2917 201.821 48.5341C201.821 47.8447 201.624 47.2803 201.23 46.8409C200.844 46.4015 200.317 46.0379 199.651 45.75C198.991 45.4621 198.245 45.2083 197.412 44.9886L194.662 44.2386C192.798 43.7311 191.321 42.9848 190.23 42C189.147 41.0152 188.605 39.7121 188.605 38.0909C188.605 36.75 188.969 35.5795 189.696 34.5795C190.423 33.5795 191.408 32.803 192.651 32.25C193.893 31.6894 195.295 31.4091 196.855 31.4091C198.431 31.4091 199.821 31.6856 201.026 32.2386C202.238 32.7917 203.192 33.553 203.889 34.5227C204.586 35.4848 204.95 36.5909 204.98 37.8409H201.594ZM220.278 47.7614V37.5455H223.688V55H220.347V51.9773H220.165C219.763 52.9091 219.119 53.6856 218.233 54.3068C217.354 54.9205 216.259 55.2273 214.949 55.2273C213.828 55.2273 212.835 54.9811 211.972 54.4886C211.116 53.9886 210.441 53.25 209.949 52.2727C209.464 51.2955 209.222 50.0871 209.222 48.6477V37.5455H212.619V48.2386C212.619 49.428 212.949 50.375 213.608 51.0795C214.267 51.7841 215.123 52.1364 216.176 52.1364C216.813 52.1364 217.445 51.9773 218.074 51.6591C218.71 51.3409 219.237 50.8598 219.653 50.2159C220.078 49.572 220.286 48.7538 220.278 47.7614ZM228.253 55V37.5455H231.537V40.3182H231.719C232.037 39.3788 232.598 38.6402 233.401 38.1023C234.211 37.5568 235.128 37.2841 236.151 37.2841C236.363 37.2841 236.613 37.2917 236.901 37.3068C237.196 37.322 237.427 37.3409 237.594 37.3636V40.6136C237.457 40.5758 237.215 40.5341 236.866 40.4886C236.518 40.4356 236.17 40.4091 235.821 40.4091C235.018 40.4091 234.302 40.5795 233.673 40.9205C233.052 41.2538 232.56 41.7197 232.196 42.3182C231.832 42.9091 231.651 43.5833 231.651 44.3409V55H228.253ZM247.227 61.9091C245.841 61.9091 244.648 61.7273 243.648 61.3636C242.655 61 241.845 60.5189 241.216 59.9205C240.587 59.322 240.117 58.6667 239.807 57.9545L242.727 56.75C242.932 57.0833 243.205 57.4356 243.545 57.8068C243.894 58.1856 244.364 58.5076 244.955 58.7727C245.553 59.0379 246.322 59.1705 247.261 59.1705C248.549 59.1705 249.614 58.8561 250.455 58.2273C251.295 57.6061 251.716 56.6136 251.716 55.25V51.8182H251.5C251.295 52.1894 251 52.6023 250.614 53.0568C250.235 53.5114 249.712 53.9053 249.045 54.2386C248.379 54.572 247.511 54.7386 246.443 54.7386C245.064 54.7386 243.822 54.4167 242.716 53.7727C241.617 53.1212 240.746 52.1629 240.102 50.8977C239.466 49.625 239.148 48.0606 239.148 46.2045C239.148 44.3485 239.462 42.7576 240.091 41.4318C240.727 40.1061 241.598 39.0909 242.705 38.3864C243.811 37.6742 245.064 37.3182 246.466 37.3182C247.549 37.3182 248.424 37.5 249.091 37.8636C249.758 38.2197 250.277 38.6364 250.648 39.1136C251.027 39.5909 251.318 40.0114 251.523 40.375H251.773V37.5455H255.102V55.3864C255.102 56.8864 254.754 58.1174 254.057 59.0795C253.36 60.0417 252.417 60.7538 251.227 61.2159C250.045 61.678 248.712 61.9091 247.227 61.9091ZM247.193 51.9205C248.17 51.9205 248.996 51.6932 249.67 51.2386C250.352 50.7765 250.867 50.1174 251.216 49.2614C251.572 48.3977 251.75 47.3636 251.75 46.1591C251.75 44.9848 251.576 43.9508 251.227 43.0568C250.879 42.1629 250.367 41.4659 249.693 40.9659C249.019 40.4583 248.186 40.2045 247.193 40.2045C246.17 40.2045 245.318 40.4697 244.636 41C243.955 41.5227 243.439 42.2348 243.091 43.1364C242.75 44.0379 242.58 45.0455 242.58 46.1591C242.58 47.303 242.754 48.3068 243.102 49.1705C243.451 50.0341 243.966 50.7083 244.648 51.1932C245.337 51.678 246.186 51.9205 247.193 51.9205ZM267.182 55.3523C265.462 55.3523 263.981 54.9848 262.739 54.25C261.504 53.5076 260.549 52.4659 259.875 51.125C259.208 49.7765 258.875 48.197 258.875 46.3864C258.875 44.5985 259.208 43.0227 259.875 41.6591C260.549 40.2955 261.489 39.2311 262.693 38.4659C263.905 37.7008 265.322 37.3182 266.943 37.3182C267.928 37.3182 268.883 37.4811 269.807 37.8068C270.731 38.1326 271.561 38.6439 272.295 39.3409C273.03 40.0379 273.61 40.9432 274.034 42.0568C274.458 43.1629 274.67 44.5076 274.67 46.0909V47.2955H260.795V44.75H271.341C271.341 43.8561 271.159 43.0644 270.795 42.375C270.432 41.678 269.92 41.1288 269.261 40.7273C268.61 40.3258 267.845 40.125 266.966 40.125C266.011 40.125 265.178 40.3598 264.466 40.8295C263.761 41.2917 263.216 41.8977 262.83 42.6477C262.451 43.3902 262.261 44.197 262.261 45.0682V47.0568C262.261 48.2235 262.466 49.2159 262.875 50.0341C263.292 50.8523 263.871 51.4773 264.614 51.9091C265.356 52.3333 266.223 52.5455 267.216 52.5455C267.86 52.5455 268.447 52.4545 268.977 52.2727C269.508 52.0833 269.966 51.803 270.352 51.4318C270.739 51.0606 271.034 50.6023 271.239 50.0568L274.455 50.6364C274.197 51.5833 273.735 52.4129 273.068 53.125C272.409 53.8295 271.58 54.3788 270.58 54.7727C269.587 55.1591 268.455 55.3523 267.182 55.3523Z" fill="white"/>
</svg>
